<?xml version="1.0" encoding="utf-8"?>
<!DOCTYPE svg PUBLIC "-//W3C//DTD SVG 20010904//EN" "http://www.w3.org/TR/2001/REC-SVG-20010904/DTD/svg10.dtd">
<svg version="1.0" xmlns="http://www.w3.org/2000/svg" width="140px" height="58px" viewBox="0 0 140 58" preserveAspectRatio="xMidYMid meet">
 <g fill="#f5f5f5">
  <path d="M0 29 l0 -29 70 0 70 0 0 29 0 29 -70 0 -70 0 0 -29z m38 2.5 c0 -19 -0.2 -21.5 -1.6 -21.5 -0.9 0 -1.8 -0.9 -2.1 -2 -0.5 -1.9 -1.4 -2 -14.9 -2 l-14.4 0 0 22.5 c0 21.8 0.1 22.5 2 22.5 1.1 0 2 0.5 2 1 0 0.6 5.5 1 14.5 1 l14.5 0 0 -21.5z m20 15 l0 -6.5 3.4 0 c3.2 0 3.5 0.3 5.1 5 1 2.9 2.3 5 3.1 5 0.8 0 1.4 0.7 1.4 1.5 0 1.1 1.1 1.5 3.9 1.5 l3.9 0 -0.5 -20.7 c-0.2 -11.5 -0.6 -21.4 -0.8 -22 -0.3 -0.7 -1.4 -1.3 -2.5 -1.3 -1.1 0 -2 -0.4 -2 -1 0 -0.5 -0.9 -1 -2 -1 -1.8 0 -2 0.7 -2 6.6 l0 6.5 -3.7 -0.3 c-3.5 -0.3 -3.8 -0.6 -5.2 -5 -1 -3.5 -2 -4.8 -3.3 -4.8 -1 0 -2.1 -0.7 -2.4 -1.5 -0.4 -0.9 -1.9 -1.5 -3.7 -1.5 l-3 0 0.6 14.2 c0.4 7.9 0.7 17.6 0.7 21.6 0 5.7 0.3 7.2 1.5 7.2 0.8 0 1.5 0.7 1.5 1.5 0 1 1 1.5 3 1.5 l3 0 0 -6.5z m40 -15 l0 -21.5 -2.5 0 c-1.6 0 -2.5 -0.6 -2.5 -1.5 0 -0.9 -0.9 -1.5 -2.5 -1.5 l-2.5 0 0 21.1 c0 20.2 0.1 21.1 2 21.6 1.1 0.3 2 1.2 2 1.9 0 0.9 1.1 1.4 3 1.4 l3 0 0 -21.5z m28 2 l0 -19.5 5.5 0 c4.8 0 5.5 -0.2 5.5 -2 0 -1.5 -0.7 -2 -2.5 -2 -1.6 0 -2.5 -0.6 -2.5 -1.5 0 -1.3 -2.1 -1.5 -12.5 -1.5 -10.4 0 -12.5 0.2 -12.5 1.5 0 0.8 0.6 1.5 1.4 1.5 0.7 0 1.6 0.9 1.9 2 0.4 1.5 1.4 2 3.6 2 l3.2 0 -0.7 18 c-0.6 16.4 -0.6 18 0.9 18 1 0 1.7 0.7 1.7 1.5 0 1 1.1 1.5 3.5 1.5 l3.5 0 0 -19.5z"/>
 </g>
 <g fill="#4a97ff">
 </g>
 <g fill="#7d7d7d">
 </g>
 <g fill="#0064ff">
  <path d="M6 55 c0 -0.5 -0.9 -1 -2 -1 -1.9 0 -2 -0.7 -2 -25.5 l0 -25.5 17.5 0 c15.3 0 17.5 0.2 17.5 1.6 0 0.9 0.9 1.8 2.1 2.1 1.5 0.4 1.9 1.1 1.5 2.7 -0.3 1.1 -0.6 12.1 -0.6 24.4 l0 22.2 -17 0 c-10.7 0 -17 -0.4 -17 -1z"/>
  <path d="M49 54.5 c0 -0.8 -0.7 -1.5 -1.5 -1.5 -0.8 0 -1.5 -0.7 -1.5 -1.5 0 -1.1 1.1 -1.5 4 -1.5 l4 0 0 -11.4 0 -11.5 3.4 -0.3 3.3 -0.3 -2.8 -8.5 c-2.9 -8.6 -3.7 -14 -2 -14 0.5 0 1.1 0.7 1.5 1.5 0.3 0.8 1.4 1.5 2.4 1.5 1.4 0 2.3 1.2 3.2 4.5 1.9 6.7 3.4 6.9 2.7 0.4 -0.5 -5.4 -0.5 -5.4 0.8 -1.9 0.7 1.9 1.4 7.2 1.4 11.8 l0.1 8.2 -3.1 0 c-2.8 0 -3.1 0.3 -2.5 2.3 0.4 1.2 0.9 5.4 1.2 9.2 0.5 6.7 0.4 6.9 -1 4 -1.4 -2.9 -1.4 -2.9 -1.5 3.8 l-0.1 6.7 -6 0 c-4.7 0 -6 -0.3 -6 -1.5z"/>
  <path d="M68 54.5 c0 -0.8 -0.7 -1.5 -1.5 -1.5 -0.8 0 -1.5 -0.7 -1.5 -1.5 0 -1.1 1.2 -1.5 4.6 -1.5 l4.6 0 -0.3 -23 c-0.3 -17.9 -0.1 -23 0.9 -23 0.6 0 1.2 0.5 1.2 1 0 0.6 0.9 1 2 1 1.1 0 2.2 0.6 2.4 1.3 0.3 0.6 0.7 11.9 1 25 l0.6 23.7 -7 0 c-5.6 0 -7 -0.3 -7 -1.5z"/>
  <path d="M89 54.5 c0 -0.8 -0.7 -1.5 -1.5 -1.5 -0.8 0 -1.5 -0.6 -1.5 -1.4 0 -1 1.3 -1.6 3.8 -1.8 l3.7 -0.3 0.3 -22.7 c0.1 -14.1 0.6 -22.8 1.2 -22.8 0.6 0 1 0.7 1 1.5 0 0.9 0.9 1.5 2.5 1.5 l2.5 0 0 24.5 0 24.5 -6 0 c-4.7 0 -6 -0.3 -6 -1.5z"/>
  <path d="M116 54.5 c0 -0.8 -0.7 -1.5 -1.5 -1.5 -0.8 0 -1.5 -0.7 -1.5 -1.5 0 -1.1 1.2 -1.5 4.5 -1.5 l4.5 0 0 -19.5 0 -19.5 5 0 5 0 0 -3.5 c0 -2.4 0.5 -3.5 1.5 -3.5 0.8 0 1.5 0.7 1.5 1.5 0 0.8 0.9 1.5 2 1.5 1.7 0 2 0.7 2 5 l0 5 -5 0 -5 0 0 19.5 0 19.5 -6.5 0 c-5.1 0 -6.5 -0.3 -6.5 -1.5z"/>
  <path d="M114 18.5 c0 -1 -1 -1.5 -3.1 -1.5 -2.2 0 -3.2 -0.5 -3.6 -2 -0.3 -1.1 -1.2 -2 -1.9 -2 -0.8 0 -1.4 -0.7 -1.4 -1.5 0 -1.6 2.2 -1.9 8.3 -0.9 3.6 0.6 3.7 0.8 3.7 5 0 2.4 -0.4 4.4 -1 4.4 -0.5 0 -1 -0.7 -1 -1.5z"/>
 </g>
 <g fill="#3b5cbd">
  <path d="M121 51 c0 -1.3 0.7 -2 2 -2 1.3 0 2 0.7 2 2 0 1.3 -0.7 2 -2 2 -1.3 0 -2 -0.7 -2 -2z"/>
  <path d="M57 13.5 c0 -3.9 1.4 -4.6 3 -1.6 1.6 3.1 1.2 5.1 -1 5.1 -1.6 0 -2 -0.7 -2 -3.5z"/>
 </g>
 <g fill="#304987">
  <path d="M60.6 40.8 c-1 -3.8 -0.7 -4.8 1.4 -4.8 1.6 0 2 0.7 2 3.5 0 4 -2.4 4.9 -3.4 1.3z"/>
  <path d="M113.5 17.1 c-0.3 -1.7 -1.4 -3.2 -2.3 -3.4 -0.9 -0.3 0 -0.5 2.1 -0.6 3.6 -0.1 3.7 0 3.7 3.4 0 4.4 -2.6 4.8 -3.5 0.6z"/>
 </g>
 <g fill="#383e4a">
 </g>
 <g fill="#3d3d3d">
  <path d="M6.2 54.8 c0.4 -1 4.6 -1.4 15.6 -1.6 l15.2 -0.3 0 -22.9 c0 -22.3 0.1 -23 2 -23 1.9 0 2 0.7 2 24.5 l0 24.5 -17.6 0 c-13.6 0 -17.5 -0.3 -17.2 -1.2z"/>
 </g>
 <g fill="#16264d">
 </g>
 <g fill="#090c11">
  <path d="M45.7 34.8 c-0.4 -9.9 -0.7 -21 -0.7 -24.5 l0 -6.3 5.9 0 c6.7 0 5.8 -1.1 10.6 13.3 l3.2 9.7 0.6 -7.2 c0.3 -3.9 0.3 -9.1 0 -11.5 l-0.6 -4.3 5.5 0 c4.9 0 5.6 0.3 6.2 2.3 0.3 1.2 0.6 12.2 0.6 24.5 l0 22.2 -6 0 c-3.3 0 -6 -0.1 -6 -0.2 0 -0.2 -1.8 -5.5 -3.9 -11.8 l-4 -11.5 0 11.8 -0.1 11.7 -5.3 0 -5.4 0 -0.6 -18.2z"/>
  <path d="M85.7 52.4 c-0.4 -0.4 -0.7 -11.5 -0.7 -24.6 l0 -23.8 5.5 0 c5.3 0 5.4 0.1 6 3.3 0.3 1.7 0.5 12.6 0.3 24.2 l-0.3 21 -5 0.3 c-2.8 0.2 -5.4 0 -5.8 -0.4z"/>
  <path d="M113.2 34.7 c0.3 -10.1 0.3 -18.9 -0.1 -19.4 -0.3 -0.6 -2.5 -1.4 -4.8 -1.8 l-4.3 -0.7 0 -4.4 0 -4.4 15.5 0 15.5 0 0 5 0 5 -5 0 -5 0 -0.2 19.3 -0.3 19.2 -5.9 0.3 -5.9 0.3 0.5 -18.4z"/>
 </g>
</svg>